<svg width="24" height="24" viewBox="0 0 24 24" fill="none" xmlns="http://www.w3.org/2000/svg">
<path d="M19.3249 9.4682C19.3249 9.4682 18.7819 16.2032 18.4669 19.0402C18.3169 20.3952 17.4799 21.1892 16.1089 21.2142C13.4999 21.2612 10.8879 21.2642 8.27991 21.2092C6.96091 21.1822 6.13791 20.3782 5.99091 19.0472C5.67391 16.1852 5.13391 9.4682 5.13391 9.4682" stroke="#130F26" stroke-width="1.5" stroke-linecap="round" stroke-linejoin="round"/>
<path d="M20.7082 6.23969H3.75018" stroke="#130F26" stroke-width="1.5" stroke-linecap="round" stroke-linejoin="round"/>
<path d="M17.4406 6.23967C16.6556 6.23967 15.9796 5.68467 15.8256 4.91567L15.5826 3.69967C15.4326 3.13867 14.9246 2.75067 14.3456 2.75067H10.1126C9.53358 2.75067 9.02558 3.13867 8.87558 3.69967L8.63258 4.91567C8.47858 5.68467 7.80258 6.23967 7.01758 6.23967" stroke="#130F26" stroke-width="1.5" stroke-linecap="round" stroke-linejoin="round"/>
</svg>
