<svg width="24" height="24" viewBox="0 0 24 24" fill="none" xmlns="http://www.w3.org/2000/svg">
<path d="M9.43879 22C6.46219 21.9828 4 15.9066 4 12.8121C4 7.75726 7.79199 6.65062 9.2534 6.65062C9.91199 6.65062 10.6152 6.90925 11.2355 7.13812C11.6693 7.29777 12.1179 7.46257 12.3673 7.46257C12.5167 7.46257 12.8686 7.32238 13.1793 7.19937C13.8419 6.93558 14.6664 6.60773 15.6266 6.60773C15.6283 6.60773 15.6306 6.60773 15.6323 6.60773C16.3493 6.60773 18.5231 6.76507 19.83 8.72773L20.1361 9.18777L19.6955 9.52023C19.0661 9.99515 17.9177 10.8615 17.9177 12.5775C17.9177 14.61 19.2183 15.3916 19.8432 15.7676C20.119 15.9335 20.4045 16.1046 20.4045 16.4788C20.4045 16.7232 18.4544 21.9697 15.6226 21.9697C14.9296 21.9697 14.4398 21.7614 14.0078 21.5777C13.5707 21.3918 13.1936 21.2316 12.5704 21.2316C12.2546 21.2316 11.8552 21.3809 11.4323 21.5394C10.8545 21.7551 10.2004 22 9.45824 22H9.43879Z" fill="#141010"/>
<path d="M15.9266 2C16.0004 4.65922 14.0986 6.50406 12.1991 6.38836C11.8861 4.26621 14.0984 2 15.9266 2Z" fill="#141010"/>
</svg>
