<svg width="24" height="24" viewBox="0 0 24 24" fill="none" xmlns="http://www.w3.org/2000/svg">
<path d="M18.344 8.71001C17.637 8.71001 17.065 9.28201 17.065 9.98801V14.518C17.065 14.8572 17.1998 15.1825 17.4396 15.4224C17.6795 15.6623 18.0048 15.797 18.344 15.797C18.6832 15.797 19.0085 15.6623 19.2484 15.4224C19.4883 15.1825 19.623 14.8572 19.623 14.518V9.98801C19.623 9.28201 19.051 8.71001 18.344 8.71001ZM5.65601 8.71001C4.94901 8.71001 4.37701 9.28201 4.37701 9.98801V14.518C4.37701 14.8572 4.51177 15.1825 4.75162 15.4224C4.99148 15.6623 5.3168 15.797 5.65601 15.797C5.99523 15.797 6.32054 15.6623 6.5604 15.4224C6.80026 15.1825 6.93501 14.8572 6.93501 14.518V9.98801C6.93515 9.82006 6.90215 9.65373 6.8379 9.49855C6.77366 9.34338 6.67944 9.20239 6.56064 9.08368C6.44183 8.96497 6.30078 8.87086 6.14555 8.80674C5.99032 8.74262 5.82396 8.70975 5.65601 8.71001ZM14.545 4.90101L15.313 3.51301C15.3355 3.47349 15.3498 3.42991 15.3553 3.38479C15.3608 3.33968 15.3572 3.29392 15.3448 3.25019C15.3324 3.20646 15.3115 3.16563 15.2832 3.13006C15.2549 3.09449 15.2198 3.0649 15.18 3.04301C15.1403 3.02062 15.0965 3.00634 15.0513 3.00101C15.006 2.99569 14.9601 2.99941 14.9163 3.01197C14.8724 3.02453 14.8316 3.04568 14.796 3.07419C14.7604 3.10269 14.7308 3.13798 14.709 3.17801L13.92 4.59801C13.332 4.36301 12.684 4.23001 12 4.23001C11.316 4.23001 10.668 4.36201 10.08 4.59701L9.29101 3.17901C9.26919 3.13898 9.23963 3.10369 9.20405 3.07519C9.16847 3.04668 9.12758 3.02553 9.08376 3.01297C9.03993 3.00041 8.99405 2.99669 8.94877 3.00202C8.90349 3.00734 8.85973 3.02162 8.82001 3.04401C8.78038 3.0661 8.7455 3.09579 8.71736 3.13138C8.68922 3.16697 8.66837 3.20776 8.65602 3.25142C8.64366 3.29508 8.64004 3.34074 8.64536 3.3858C8.65068 3.43086 8.66483 3.47443 8.68701 3.51401L9.45501 4.90201C8.07201 5.69001 7.14801 7.09901 7.14801 8.71001C7.14801 8.72101 7.14801 8.73101 7.15001 8.74401C7.14801 8.75001 7.14801 8.75701 7.14801 8.76301V8.76401H16.851V8.76301V8.74401V8.71001C16.852 7.09901 15.928 5.69101 14.545 4.90101ZM9.76001 6.86901C9.71451 6.86868 9.66952 6.8594 9.6276 6.84168C9.58569 6.82396 9.54768 6.79816 9.51573 6.76576C9.45122 6.70031 9.41535 6.61191 9.41601 6.52001C9.41668 6.42811 9.45382 6.34024 9.51927 6.27573C9.58472 6.21122 9.67312 6.17535 9.76501 6.17601C9.85691 6.17667 9.94478 6.21382 10.0093 6.27927C10.0738 6.34472 10.1097 6.43311 10.109 6.52501C10.1084 6.61691 10.0712 6.70478 10.0058 6.76929C9.94031 6.8338 9.85191 6.86967 9.76001 6.86901ZM14.24 6.86901C14.1528 6.86237 14.0713 6.82304 14.0118 6.75889C13.9524 6.69473 13.9193 6.61048 13.9193 6.52301C13.9193 6.43554 13.9524 6.35129 14.0118 6.28714C14.0713 6.22298 14.1528 6.18365 14.24 6.17701C14.3318 6.17701 14.4198 6.21346 14.4847 6.27835C14.5496 6.34324 14.586 6.43125 14.586 6.52301C14.586 6.61478 14.5496 6.70278 14.4847 6.76767C14.4198 6.83256 14.3318 6.86901 14.24 6.86901ZM7.14801 16.12C7.14801 16.766 7.67301 17.291 8.32201 17.291H8.90801V19.692C8.90801 20.0312 9.04277 20.3565 9.28263 20.5964C9.52248 20.8363 9.8478 20.971 10.187 20.971C10.5262 20.971 10.8515 20.8363 11.0914 20.5964C11.3313 20.3565 11.466 20.0312 11.466 19.692V17.291H12.532V19.692C12.532 20.399 13.104 20.97 13.809 20.97C14.518 20.97 15.09 20.399 15.09 19.692V17.291H15.676C16.324 17.291 16.85 16.767 16.85 16.12V9.02801H7.14801V16.12Z" fill="black"/>
</svg>
