<svg width="24" height="24" viewBox="0 0 24 24" fill="none" xmlns="http://www.w3.org/2000/svg">
<path d="M10.7291 0.947321C11.1063 1.32449 11.7178 1.32449 12.095 0.947321C12.7359 0.306378 13.7751 0.306378 14.416 0.947321C14.7932 1.32449 15.4047 1.32449 15.7819 0.947321L15.7876 0.941555C16.069 0.660202 16.5369 0.953556 16.4064 1.32941L15.3603 4.33973H11.1618L10.1107 1.33593C9.97915 0.959931 10.4475 0.66564 10.7291 0.947321Z" fill="#38972E"/>
<path d="M18.7339 7.78554L15.2872 4.3389H11.2351L7.78849 7.78554C4.76598 10.808 4.76598 15.7084 7.78849 18.7309C10.8109 21.7534 15.7114 21.7534 18.7339 18.7309C21.7564 15.7084 21.7564 10.808 18.7339 7.78554Z" fill="#FFAF7A"/>
<path d="M4.59387 23.5314H13.6988C15.5065 23.5314 17.2431 22.8266 18.5395 21.5667L23.1296 17.1056C23.8889 16.3676 23.5178 15.0811 22.4821 14.8608C22.0705 14.7733 21.6419 14.8866 21.3274 15.166L16.7284 19.2505C15.9538 19.9384 14.9538 20.3184 13.9179 20.3184L9.1184 18.8578L13.5148 20.2558C14.0982 20.4413 14.7329 20.205 15.0531 19.6832C15.4661 19.01 15.2057 18.1273 14.4934 17.7861L11.1841 16.2011C9.84264 15.5586 8.29843 15.4854 6.90217 15.998L4.6032 16.8422L4.59387 23.5314Z" fill="#38972E"/>
<path d="M3.71884 16.2188H1.34379C0.860544 16.2188 0.46875 16.6105 0.46875 17.0938V22.6565C0.46875 23.1397 0.860497 23.5315 1.34379 23.5315H3.71889C4.20214 23.5315 4.59393 23.1398 4.59393 22.6565V17.0938C4.59389 16.6105 4.20214 16.2188 3.71884 16.2188Z" fill="#FFAF7A"/>
<path d="M13.2613 10.1684C13.6018 10.1684 13.8787 10.4003 13.8787 10.6853C13.8787 10.9441 14.0886 11.1541 14.3474 11.1541C14.6063 11.1541 14.8162 10.9441 14.8162 10.6853C14.8162 10.0361 14.3591 9.48497 13.7301 9.29854V9.23338C13.7301 8.97453 13.5202 8.76462 13.2613 8.76462C13.0025 8.76462 12.7926 8.97453 12.7926 9.23338V9.29854C12.1636 9.48502 11.7065 10.0361 11.7065 10.6853C11.7065 11.4873 12.404 12.1397 13.2613 12.1397C13.6018 12.1397 13.8787 12.3716 13.8787 12.6566C13.8787 12.9416 13.6018 13.1735 13.2613 13.1735C12.921 13.1735 12.6441 12.9416 12.6441 12.6566C12.6441 12.3977 12.4342 12.1878 12.1753 12.1878C11.9165 12.1878 11.7065 12.3977 11.7065 12.6566C11.7065 13.3058 12.1636 13.8569 12.7926 14.0433V14.1085C12.7926 14.3673 13.0025 14.5772 13.2613 14.5772C13.5202 14.5772 13.7301 14.3673 13.7301 14.1085V14.0433C14.3591 13.8569 14.8162 13.3058 14.8162 12.6566C14.8162 11.8546 14.1187 11.2022 13.2613 11.2022C12.921 11.2022 12.6441 10.9703 12.6441 10.6853C12.6441 10.4003 12.921 10.1684 13.2613 10.1684Z" fill="#141010"/>
<path d="M23.9295 15.6588C23.7456 15.0215 23.2284 14.5399 22.5796 14.4019C22.1642 14.3135 21.7321 14.378 21.3631 14.5741C21.5767 13.2454 21.4645 11.871 21.0248 10.5898C20.9408 10.3449 20.6741 10.2147 20.4293 10.2985C20.1844 10.3826 20.054 10.6492 20.138 10.8941C20.6573 12.4071 20.6615 14.0669 20.1528 15.5818L16.4172 18.8996C16.1867 19.1043 15.9339 19.2778 15.6653 19.4187C15.7412 19.1114 15.736 18.7861 15.6448 18.4769C15.5008 17.9888 15.1549 17.5827 14.6958 17.3629L11.3866 15.7778C9.93975 15.0849 8.24638 15.0047 6.74061 15.5575L6.40423 15.681C5.47054 13.0434 6.12044 10.1183 8.11991 8.11887L11.4293 4.80952H15.093L17.897 7.61354C18.0801 7.79655 18.3769 7.79655 18.56 7.61354C18.7431 7.43049 18.7431 7.13366 18.56 6.95056L15.8808 4.27157L16.8494 1.48438C16.9792 1.11073 16.8358 0.70309 16.5006 0.492989C16.1656 0.282935 15.7361 0.33164 15.4564 0.611212L15.4506 0.616978C15.2569 0.810812 14.9415 0.810812 14.7477 0.616978C13.925 -0.205659 12.5865 -0.205659 11.7637 0.616978C11.6699 0.710871 11.545 0.762529 11.4123 0.762529C11.2795 0.762529 11.1547 0.710824 11.0609 0.616978C10.7809 0.336984 10.3511 0.288514 10.0158 0.499224C9.68048 0.709887 9.53765 1.11809 9.66848 1.49188L10.6412 4.27185L7.45698 7.45603C6.27855 8.63451 5.4952 10.1203 5.19172 11.7528C4.92551 13.1844 5.04082 14.6442 5.52342 16.0046L4.78441 16.2759C4.5385 15.9562 4.15247 15.7496 3.7189 15.7496H1.34381C0.602833 15.7496 0 16.3524 0 17.0934V22.656C0 23.397 0.602833 23.9999 1.34381 23.9999H13.6988C15.6394 23.9999 17.4746 23.255 18.8662 21.9025L23.4563 17.4414C23.9319 16.9792 24.1132 16.2962 23.9295 15.6588ZM11.4122 1.70006C11.7954 1.70006 12.1557 1.55085 12.4266 1.27991C12.8838 0.822766 13.6276 0.822766 14.0848 1.27991C14.3557 1.55085 14.716 1.70006 15.0992 1.70006C15.3712 1.70006 15.6317 1.62487 15.8569 1.48424L15.0272 3.87204H11.4946L10.6602 1.48785C10.8842 1.62614 11.1425 1.70006 11.4122 1.70006ZM0.937531 22.656V17.0934C0.937531 16.8694 1.11979 16.6871 1.34381 16.6871H3.71886C3.94288 16.6871 4.12514 16.8694 4.12514 17.0934V22.656C4.12514 22.8801 3.94288 23.0623 3.71886 23.0623H1.34381C1.11979 23.0623 0.937531 22.8801 0.937531 22.656ZM22.8029 16.7691L18.2128 21.2302C16.9971 22.4116 15.394 23.0623 13.6988 23.0623H4.99971C5.0405 22.9341 5.06267 22.7976 5.06267 22.656V17.1725L7.06374 16.4377C8.33348 15.9715 9.76158 16.0391 10.9816 16.6235L14.2909 18.2085C14.5141 18.3154 14.6756 18.505 14.7456 18.7424C14.8156 18.9798 14.7829 19.2268 14.6535 19.4377C14.4456 19.7766 14.0356 19.929 13.6568 19.8087L9.26042 18.4107C9.01375 18.3323 8.75012 18.4686 8.6716 18.7154C8.59318 18.9621 8.72954 19.2257 8.9763 19.3042L13.3727 20.7022C13.5537 20.7597 13.7381 20.7874 13.9201 20.7874C13.9421 20.7874 13.9639 20.7861 13.9858 20.7853C15.1132 20.7691 16.1953 20.3506 17.0396 19.6007L21.6386 15.5161C21.841 15.3365 22.12 15.2628 22.3846 15.319C22.6988 15.3859 22.9396 15.61 23.0286 15.9187C23.1176 16.2273 23.0333 16.5453 22.8029 16.7691Z" fill="#141010"/>
<path d="M19.629 9.32816C19.7523 9.32816 19.8733 9.27847 19.9604 9.19081C20.0476 9.10362 20.0978 8.9831 20.0978 8.85939C20.0978 8.73611 20.0477 8.61563 19.9604 8.52797C19.8733 8.44083 19.7523 8.39062 19.629 8.39062C19.5057 8.39062 19.3853 8.44078 19.2976 8.52797C19.2104 8.61563 19.1603 8.73611 19.1603 8.85939C19.1603 8.98314 19.2104 9.10362 19.2976 9.19081C19.3848 9.27847 19.5057 9.32816 19.629 9.32816Z" fill="#141010"/>
<path d="M10.7291 0.947321C11.1063 1.32449 11.7178 1.32449 12.095 0.947321C12.7359 0.306378 13.7751 0.306378 14.416 0.947321C14.7932 1.32449 15.4047 1.32449 15.7819 0.947321L15.7876 0.941555C16.069 0.660202 16.5369 0.953556 16.4064 1.32941L15.3603 4.33973H11.1618L10.1107 1.33593C9.97915 0.959931 10.4475 0.66564 10.7291 0.947321Z" fill="#38972E"/>
<path d="M18.7339 7.78554L15.2872 4.3389H11.2351L7.78849 7.78554C4.76598 10.808 4.76598 15.7084 7.78849 18.7309C10.8109 21.7534 15.7114 21.7534 18.7339 18.7309C21.7564 15.7084 21.7564 10.808 18.7339 7.78554Z" fill="#FFAF7A"/>
<path d="M4.59387 23.5314H13.6988C15.5065 23.5314 17.2431 22.8266 18.5395 21.5667L23.1296 17.1056C23.8889 16.3676 23.5178 15.0811 22.4821 14.8608C22.0705 14.7733 21.6419 14.8866 21.3274 15.166L16.7284 19.2505C15.9538 19.9384 14.9538 20.3184 13.9179 20.3184L9.1184 18.8578L13.5148 20.2558C14.0982 20.4413 14.7329 20.205 15.0531 19.6832C15.4661 19.01 15.2057 18.1273 14.4934 17.7861L11.1841 16.2011C9.84264 15.5586 8.29843 15.4854 6.90217 15.998L4.6032 16.8422L4.59387 23.5314Z" fill="#38972E"/>
<path d="M3.71884 16.2188H1.34379C0.860544 16.2188 0.46875 16.6105 0.46875 17.0938V22.6565C0.46875 23.1397 0.860497 23.5315 1.34379 23.5315H3.71889C4.20214 23.5315 4.59393 23.1398 4.59393 22.6565V17.0938C4.59389 16.6105 4.20214 16.2188 3.71884 16.2188Z" fill="#FFAF7A"/>
<path d="M13.2613 10.1684C13.6018 10.1684 13.8787 10.4003 13.8787 10.6853C13.8787 10.9441 14.0886 11.1541 14.3474 11.1541C14.6063 11.1541 14.8162 10.9441 14.8162 10.6853C14.8162 10.0361 14.3591 9.48497 13.7301 9.29854V9.23338C13.7301 8.97453 13.5202 8.76462 13.2613 8.76462C13.0025 8.76462 12.7926 8.97453 12.7926 9.23338V9.29854C12.1636 9.48502 11.7065 10.0361 11.7065 10.6853C11.7065 11.4873 12.404 12.1397 13.2613 12.1397C13.6018 12.1397 13.8787 12.3716 13.8787 12.6566C13.8787 12.9416 13.6018 13.1735 13.2613 13.1735C12.921 13.1735 12.6441 12.9416 12.6441 12.6566C12.6441 12.3977 12.4342 12.1878 12.1753 12.1878C11.9165 12.1878 11.7065 12.3977 11.7065 12.6566C11.7065 13.3058 12.1636 13.8569 12.7926 14.0433V14.1085C12.7926 14.3673 13.0025 14.5772 13.2613 14.5772C13.5202 14.5772 13.7301 14.3673 13.7301 14.1085V14.0433C14.3591 13.8569 14.8162 13.3058 14.8162 12.6566C14.8162 11.8546 14.1187 11.2022 13.2613 11.2022C12.921 11.2022 12.6441 10.9703 12.6441 10.6853C12.6441 10.4003 12.921 10.1684 13.2613 10.1684Z" fill="#141010"/>
<path d="M23.9295 15.6588C23.7456 15.0215 23.2284 14.5399 22.5796 14.4019C22.1642 14.3135 21.7321 14.378 21.3631 14.5741C21.5767 13.2454 21.4645 11.871 21.0248 10.5898C20.9408 10.3449 20.6741 10.2147 20.4293 10.2985C20.1844 10.3826 20.054 10.6492 20.138 10.8941C20.6573 12.4071 20.6615 14.0669 20.1528 15.5818L16.4172 18.8996C16.1867 19.1043 15.9339 19.2778 15.6653 19.4187C15.7412 19.1114 15.736 18.7861 15.6448 18.4769C15.5008 17.9888 15.1549 17.5827 14.6958 17.3629L11.3866 15.7778C9.93975 15.0849 8.24638 15.0047 6.74061 15.5575L6.40423 15.681C5.47054 13.0434 6.12044 10.1183 8.11991 8.11887L11.4293 4.80952H15.093L17.897 7.61354C18.0801 7.79655 18.3769 7.79655 18.56 7.61354C18.7431 7.43049 18.7431 7.13366 18.56 6.95056L15.8808 4.27157L16.8494 1.48438C16.9792 1.11073 16.8358 0.70309 16.5006 0.492989C16.1656 0.282935 15.7361 0.33164 15.4564 0.611212L15.4506 0.616978C15.2569 0.810812 14.9415 0.810812 14.7477 0.616978C13.925 -0.205659 12.5865 -0.205659 11.7637 0.616978C11.6699 0.710871 11.545 0.762529 11.4123 0.762529C11.2795 0.762529 11.1547 0.710824 11.0609 0.616978C10.7809 0.336984 10.3511 0.288514 10.0158 0.499224C9.68048 0.709887 9.53765 1.11809 9.66848 1.49188L10.6412 4.27185L7.45698 7.45603C6.27855 8.63451 5.4952 10.1203 5.19172 11.7528C4.92551 13.1844 5.04082 14.6442 5.52342 16.0046L4.78441 16.2759C4.5385 15.9562 4.15247 15.7496 3.7189 15.7496H1.34381C0.602833 15.7496 0 16.3524 0 17.0934V22.656C0 23.397 0.602833 23.9999 1.34381 23.9999H13.6988C15.6394 23.9999 17.4746 23.255 18.8662 21.9025L23.4563 17.4414C23.9319 16.9792 24.1132 16.2962 23.9295 15.6588ZM11.4122 1.70006C11.7954 1.70006 12.1557 1.55085 12.4266 1.27991C12.8838 0.822766 13.6276 0.822766 14.0848 1.27991C14.3557 1.55085 14.716 1.70006 15.0992 1.70006C15.3712 1.70006 15.6317 1.62487 15.8569 1.48424L15.0272 3.87204H11.4946L10.6602 1.48785C10.8842 1.62614 11.1425 1.70006 11.4122 1.70006ZM0.937531 22.656V17.0934C0.937531 16.8694 1.11979 16.6871 1.34381 16.6871H3.71886C3.94288 16.6871 4.12514 16.8694 4.12514 17.0934V22.656C4.12514 22.8801 3.94288 23.0623 3.71886 23.0623H1.34381C1.11979 23.0623 0.937531 22.8801 0.937531 22.656ZM22.8029 16.7691L18.2128 21.2302C16.9971 22.4116 15.394 23.0623 13.6988 23.0623H4.99971C5.0405 22.9341 5.06267 22.7976 5.06267 22.656V17.1725L7.06374 16.4377C8.33348 15.9715 9.76158 16.0391 10.9816 16.6235L14.2909 18.2085C14.5141 18.3154 14.6756 18.505 14.7456 18.7424C14.8156 18.9798 14.7829 19.2268 14.6535 19.4377C14.4456 19.7766 14.0356 19.929 13.6568 19.8087L9.26042 18.4107C9.01375 18.3323 8.75012 18.4686 8.6716 18.7154C8.59318 18.9621 8.72954 19.2257 8.9763 19.3042L13.3727 20.7022C13.5537 20.7597 13.7381 20.7874 13.9201 20.7874C13.9421 20.7874 13.9639 20.7861 13.9858 20.7853C15.1132 20.7691 16.1953 20.3506 17.0396 19.6007L21.6386 15.5161C21.841 15.3365 22.12 15.2628 22.3846 15.319C22.6988 15.3859 22.9396 15.61 23.0286 15.9187C23.1176 16.2273 23.0333 16.5453 22.8029 16.7691Z" fill="#141010"/>
<path d="M19.629 9.32816C19.7523 9.32816 19.8733 9.27847 19.9604 9.19081C20.0476 9.10362 20.0978 8.9831 20.0978 8.85939C20.0978 8.73611 20.0477 8.61563 19.9604 8.52797C19.8733 8.44083 19.7523 8.39062 19.629 8.39062C19.5057 8.39062 19.3853 8.44078 19.2976 8.52797C19.2104 8.61563 19.1603 8.73611 19.1603 8.85939C19.1603 8.98314 19.2104 9.10362 19.2976 9.19081C19.3848 9.27847 19.5057 9.32816 19.629 9.32816Z" fill="#141010"/>
</svg>
