<svg width="24" height="24" viewBox="0 0 24 24" fill="none" xmlns="http://www.w3.org/2000/svg">
<path d="M9.98061 22H6.67405C6.50979 22 6.35303 21.931 6.24202 21.8099C6.13104 21.6888 6.076 21.5266 6.0903 21.363L7.50171 5.23119C7.52823 4.92854 7.78163 4.69635 8.08542 4.69635H15.7685C17.1626 4.69635 18.4294 5.24104 19.3358 6.23014C20.2464 7.22397 20.6805 8.54236 20.558 9.94248C20.4375 11.3196 19.7904 12.6121 18.7358 13.5818C17.6806 14.552 16.3404 15.0864 14.962 15.0864H11.1224L10.5644 21.4652C10.5378 21.7678 10.2844 22 9.98061 22Z" fill="#507BE9"/>
<path d="M15.7685 4.69629H11.7891V15.0863H14.9621C16.3405 15.0863 17.6807 14.5519 18.7358 13.5817C19.7904 12.612 20.4376 11.3195 20.5581 9.94238C20.6806 8.54226 20.2465 7.22387 19.3358 6.23004C18.4295 5.24102 17.1626 4.69629 15.7685 4.69629Z" fill="#3266C8"/>
<path d="M6.89254 19.3037H3.58598C3.42172 19.3037 3.26496 19.2347 3.15394 19.1136C3.04297 18.9925 2.98793 18.8303 3.00223 18.6667L4.41363 2.53484C4.44015 2.23219 4.69355 2 4.99734 2H12.6804C14.0745 2 15.3414 2.54469 16.2477 3.53383C17.1584 4.52762 17.5925 5.84601 17.47 7.24609C17.3495 8.62324 16.7024 9.9157 15.6478 10.8855C14.5926 11.8557 13.2524 12.3901 11.874 12.3901H8.03433L7.47628 18.7689C7.44972 19.0715 7.19632 19.3037 6.89254 19.3037Z" fill="#7DBEFF"/>
<path d="M12.6804 2H11.7891V12.39H11.874C13.2524 12.39 14.5927 11.8557 15.6478 10.8854C16.7024 9.91566 17.3495 8.6232 17.47 7.24605C17.5925 5.84597 17.1584 4.52758 16.2477 3.53379C15.3414 2.54469 14.0745 2 12.6804 2Z" fill="#6496F7"/>
<path d="M8.08543 4.6963C7.78164 4.6963 7.5282 4.92848 7.50172 5.23114L6.27051 19.3037H6.89254C7.19633 19.3037 7.44976 19.0715 7.47625 18.7688L8.0343 12.39H11.8739C13.2524 12.39 14.5926 11.8557 15.6478 10.8854C16.7023 9.91567 17.3494 8.62321 17.47 7.24606C17.5432 6.4088 17.4173 5.60087 17.1095 4.87395C16.6823 4.75696 16.2325 4.69626 15.7685 4.69626H8.08543V4.6963Z" fill="#6496F7"/>
<path d="M15.7685 4.69629H11.7891V12.39H11.874C13.2524 12.39 14.5927 11.8557 15.6478 10.8854C16.7024 9.91566 17.3495 8.6232 17.47 7.24605C17.5432 6.40879 17.4173 5.60086 17.1096 4.87395C16.6824 4.75699 16.2326 4.69629 15.7685 4.69629Z" fill="#507BE9"/>
</svg>
