<svg width="24" height="24" viewBox="0 0 24 24" fill="none" xmlns="http://www.w3.org/2000/svg">
<path d="M6.43242 14.0864L5.73625 16.6853L3.19176 16.7391C2.43133 15.3287 2 13.715 2 12.0001C2 10.3419 2.40328 8.77813 3.11812 7.40121H3.11867L5.38398 7.81653L6.37633 10.0682C6.16863 10.6738 6.05543 11.3238 6.05543 12.0001C6.05551 12.7342 6.18848 13.4375 6.43242 14.0864Z" fill="#FBBB00"/>
<path d="M21.8253 10.1315C21.9401 10.7364 22 11.3611 22 11.9996C22 12.7156 21.9247 13.4139 21.7813 14.0876C21.2945 16.3799 20.0225 18.3815 18.2605 19.798L18.2599 19.7974L15.4066 19.6519L15.0028 17.131C16.172 16.4452 17.0858 15.3722 17.5671 14.0876H12.2198V10.1315H17.6451H21.8253Z" fill="#518EF8"/>
<path d="M18.2598 19.7981L18.2604 19.7986C16.5467 21.1761 14.3697 22.0003 12 22.0003C8.19171 22.0003 4.88073 19.8717 3.19171 16.7393L6.43238 14.0866C7.27687 16.3404 9.45105 17.9448 12 17.9448C13.0955 17.9448 14.1219 17.6486 15.0027 17.1316L18.2598 19.7981Z" fill="#28B446"/>
<path d="M18.383 4.30219L15.1434 6.95437C14.2319 6.38461 13.1544 6.05547 12 6.05547C9.39344 6.05547 7.17859 7.73348 6.37641 10.0681L3.11871 7.40109H3.11816C4.78246 4.1923 8.1352 2 12 2C14.4264 2 16.6511 2.8643 18.383 4.30219Z" fill="#F14336"/>
</svg>
