<svg width="24" height="24" viewBox="0 0 24 24" fill="none" xmlns="http://www.w3.org/2000/svg">
<g clip-path="url(#clip0_102_2852)">
<path d="M14.9955 12.5C14.9955 16.643 11.6393 19.9999 7.49774 19.9999C3.35621 19.9999 0 16.6422 0 12.5C0 8.35769 3.35703 5 7.49774 5C11.6384 5 14.9955 8.35769 14.9955 12.5Z" fill="#E2574C"/>
<path d="M16.5022 5C14.8207 5 13.2727 5.56026 12.0217 6.49553L12.0277 6.49627C12.2738 6.734 12.5452 6.90131 12.7545 7.17498L11.1945 7.19974C10.95 7.44652 10.7272 7.71501 10.5172 7.99403H13.2682C13.4775 8.24524 13.6709 8.46356 13.8465 8.74101H10.0185C9.87825 8.98252 9.74853 9.23078 9.63526 9.48874H14.2823C14.4038 9.74596 14.5125 9.94025 14.6048 10.2125H9.36003C9.27678 10.4713 9.20555 10.736 9.1515 11.006H14.8245C14.88 11.2655 14.9227 11.5055 14.952 11.75H9.03897C9.01421 11.9968 9.00146 12.2473 9.00146 12.5H14.9947C14.9947 12.7656 14.9759 13.0115 14.949 13.2501H9.03897C9.06447 13.5043 9.10198 13.7541 9.1515 14.0001H14.8155C14.757 14.2431 14.6894 14.4876 14.6047 14.7411H9.34275C9.42221 14.9976 9.51903 15.2466 9.62473 15.4895H14.2823C14.1533 15.7626 14.007 15.9808 13.8458 16.2365H10.0051C10.1566 16.499 10.3238 16.7495 10.5053 16.9895L13.2683 17.0307C13.0328 17.3135 12.7306 17.4837 12.4552 17.7312C12.4702 17.7433 12.015 17.7298 11.1187 17.7155C12.4822 19.1226 14.388 20 16.5022 20C20.6444 20 24.0021 16.6422 24.0021 12.5C24.0021 8.35786 20.6452 5 16.5022 5Z" fill="#F4B459"/>
</g>
<defs>
<clipPath id="clip0_102_2852">
<rect width="24" height="24" fill="white"/>
</clipPath>
</defs>
</svg>
